<mxfile host="app.diagrams.net" agent="Mozilla/5.0 (Windows NT 10.0; Win64; x64) AppleWebKit/537.36 (KHTML, like Gecko) Chrome/130.0.0.0 Safari/537.36" version="24.8.6">
  <diagram id="C5RBs43oDa-KdzZeNtuy" name="Page-1">
    <mxGraphModel dx="1695" dy="1051" grid="1" gridSize="10" guides="1" tooltips="1" connect="1" arrows="1" fold="1" page="1" pageScale="1" pageWidth="827" pageHeight="1169" math="0" shadow="0">
      <root>
        <mxCell id="WIyWlLk6GJQsqaUBKTNV-0" />
        <mxCell id="WIyWlLk6GJQsqaUBKTNV-1" parent="WIyWlLk6GJQsqaUBKTNV-0" />
        <mxCell id="ChVXrBqrEHMdO8lqSGDM-0" value="" style="ellipse;html=1;shape=startState;fillColor=#000000;strokeColor=#ff0000;" parent="WIyWlLk6GJQsqaUBKTNV-1" vertex="1">
          <mxGeometry x="430" y="30" width="30" height="30" as="geometry" />
        </mxCell>
        <mxCell id="ChVXrBqrEHMdO8lqSGDM-1" value="" style="edgeStyle=orthogonalEdgeStyle;html=1;verticalAlign=bottom;endArrow=open;endSize=8;strokeColor=#ff0000;rounded=0;" parent="WIyWlLk6GJQsqaUBKTNV-1" source="ChVXrBqrEHMdO8lqSGDM-0" edge="1">
          <mxGeometry relative="1" as="geometry">
            <mxPoint x="445" y="130" as="targetPoint" />
          </mxGeometry>
        </mxCell>
        <mxCell id="ChVXrBqrEHMdO8lqSGDM-4" value="Logged_Out" style="rounded=1;whiteSpace=wrap;html=1;" parent="WIyWlLk6GJQsqaUBKTNV-1" vertex="1">
          <mxGeometry x="400" y="130" width="90" height="60" as="geometry" />
        </mxCell>
        <mxCell id="ChVXrBqrEHMdO8lqSGDM-9" value="Logged_In&amp;nbsp;" style="rounded=1;whiteSpace=wrap;html=1;" parent="WIyWlLk6GJQsqaUBKTNV-1" vertex="1">
          <mxGeometry x="400" y="260" width="90" height="60" as="geometry" />
        </mxCell>
        <mxCell id="ChVXrBqrEHMdO8lqSGDM-10" value="" style="endArrow=classic;html=1;rounded=0;entryX=0.25;entryY=1;entryDx=0;entryDy=0;exitX=0.333;exitY=0;exitDx=0;exitDy=0;exitPerimeter=0;" parent="WIyWlLk6GJQsqaUBKTNV-1" source="ChVXrBqrEHMdO8lqSGDM-9" target="ChVXrBqrEHMdO8lqSGDM-4" edge="1">
          <mxGeometry width="50" height="50" relative="1" as="geometry">
            <mxPoint x="423" y="250" as="sourcePoint" />
            <mxPoint x="500" y="280" as="targetPoint" />
            <Array as="points">
              <mxPoint x="400" y="230" />
            </Array>
          </mxGeometry>
        </mxCell>
        <mxCell id="ChVXrBqrEHMdO8lqSGDM-11" value="logout()" style="text;html=1;align=center;verticalAlign=middle;resizable=0;points=[];autosize=1;strokeColor=none;fillColor=none;" parent="WIyWlLk6GJQsqaUBKTNV-1" vertex="1">
          <mxGeometry x="340" y="208" width="60" height="30" as="geometry" />
        </mxCell>
        <mxCell id="ChVXrBqrEHMdO8lqSGDM-12" value="" style="endArrow=classic;html=1;rounded=0;exitX=0.778;exitY=1;exitDx=0;exitDy=0;exitPerimeter=0;entryX=0.75;entryY=0;entryDx=0;entryDy=0;" parent="WIyWlLk6GJQsqaUBKTNV-1" source="ChVXrBqrEHMdO8lqSGDM-4" target="ChVXrBqrEHMdO8lqSGDM-9" edge="1">
          <mxGeometry width="50" height="50" relative="1" as="geometry">
            <mxPoint x="450" y="330" as="sourcePoint" />
            <mxPoint x="570" y="390" as="targetPoint" />
            <Array as="points">
              <mxPoint x="490" y="230" />
            </Array>
          </mxGeometry>
        </mxCell>
        <mxCell id="ChVXrBqrEHMdO8lqSGDM-13" value="login()" style="text;html=1;align=center;verticalAlign=middle;resizable=0;points=[];autosize=1;strokeColor=none;fillColor=none;" parent="WIyWlLk6GJQsqaUBKTNV-1" vertex="1">
          <mxGeometry x="500" y="208" width="60" height="30" as="geometry" />
        </mxCell>
        <mxCell id="ChVXrBqrEHMdO8lqSGDM-15" value="Post" style="rounded=1;whiteSpace=wrap;html=1;" parent="WIyWlLk6GJQsqaUBKTNV-1" vertex="1">
          <mxGeometry x="395" y="400" width="100" height="60" as="geometry" />
        </mxCell>
        <mxCell id="ChVXrBqrEHMdO8lqSGDM-19" value="" style="endArrow=classic;html=1;rounded=0;entryX=0.556;entryY=0;entryDx=0;entryDy=0;entryPerimeter=0;" parent="WIyWlLk6GJQsqaUBKTNV-1" target="ChVXrBqrEHMdO8lqSGDM-15" edge="1">
          <mxGeometry width="50" height="50" relative="1" as="geometry">
            <mxPoint x="450" y="320" as="sourcePoint" />
            <mxPoint x="500" y="280" as="targetPoint" />
          </mxGeometry>
        </mxCell>
        <mxCell id="ChVXrBqrEHMdO8lqSGDM-23" value="" style="ellipse;html=1;shape=endState;fillColor=#000000;strokeColor=#ff0000;" parent="WIyWlLk6GJQsqaUBKTNV-1" vertex="1">
          <mxGeometry x="420" y="990" width="60" height="70" as="geometry" />
        </mxCell>
        <mxCell id="cs_Ru20W0b7ddQKjLEaM-0" value="&lt;div&gt;Opened post Section&lt;/div&gt;" style="text;html=1;align=center;verticalAlign=middle;resizable=0;points=[];autosize=1;strokeColor=none;fillColor=none;" parent="WIyWlLk6GJQsqaUBKTNV-1" vertex="1">
          <mxGeometry x="465" y="340" width="140" height="30" as="geometry" />
        </mxCell>
        <mxCell id="zGVyQx5eE9mB7A7dWW88-1" value="" style="endArrow=classic;html=1;rounded=0;exitX=0.45;exitY=1;exitDx=0;exitDy=0;exitPerimeter=0;" parent="WIyWlLk6GJQsqaUBKTNV-1" source="ChVXrBqrEHMdO8lqSGDM-15" edge="1">
          <mxGeometry width="50" height="50" relative="1" as="geometry">
            <mxPoint x="450" y="470" as="sourcePoint" />
            <mxPoint x="445" y="540" as="targetPoint" />
          </mxGeometry>
        </mxCell>
        <mxCell id="zGVyQx5eE9mB7A7dWW88-2" value="Created post" style="text;html=1;align=center;verticalAlign=middle;resizable=0;points=[];autosize=1;strokeColor=none;fillColor=none;" parent="WIyWlLk6GJQsqaUBKTNV-1" vertex="1">
          <mxGeometry x="475" y="480" width="90" height="30" as="geometry" />
        </mxCell>
        <mxCell id="zGVyQx5eE9mB7A7dWW88-4" value="" style="endArrow=classic;html=1;rounded=0;exitX=0.5;exitY=1;exitDx=0;exitDy=0;exitPerimeter=0;entryX=0.5;entryY=0;entryDx=0;entryDy=0;entryPerimeter=0;" parent="WIyWlLk6GJQsqaUBKTNV-1" source="ChVXrBqrEHMdO8lqSGDM-14" edge="1" target="DQyVlFHqTkPmnkN6bzoB-0">
          <mxGeometry width="50" height="50" relative="1" as="geometry">
            <mxPoint x="300" y="660" as="sourcePoint" />
            <mxPoint x="450" y="660" as="targetPoint" />
          </mxGeometry>
        </mxCell>
        <mxCell id="DQyVlFHqTkPmnkN6bzoB-0" value="Published&amp;nbsp;" style="rounded=1;whiteSpace=wrap;html=1;" vertex="1" parent="WIyWlLk6GJQsqaUBKTNV-1">
          <mxGeometry x="390" y="680" width="120" height="80" as="geometry" />
        </mxCell>
        <mxCell id="DQyVlFHqTkPmnkN6bzoB-2" value="Publish()" style="text;html=1;align=center;verticalAlign=middle;resizable=0;points=[];autosize=1;strokeColor=none;fillColor=none;" vertex="1" parent="WIyWlLk6GJQsqaUBKTNV-1">
          <mxGeometry x="465" y="628" width="70" height="30" as="geometry" />
        </mxCell>
        <mxCell id="DQyVlFHqTkPmnkN6bzoB-3" value="Edited&amp;nbsp;" style="rounded=1;whiteSpace=wrap;html=1;" vertex="1" parent="WIyWlLk6GJQsqaUBKTNV-1">
          <mxGeometry x="210" y="850" width="110" height="100" as="geometry" />
        </mxCell>
        <mxCell id="DQyVlFHqTkPmnkN6bzoB-4" value="Deleted&amp;nbsp;" style="rounded=1;whiteSpace=wrap;html=1;" vertex="1" parent="WIyWlLk6GJQsqaUBKTNV-1">
          <mxGeometry x="495" y="850" width="105" height="100" as="geometry" />
        </mxCell>
        <mxCell id="DQyVlFHqTkPmnkN6bzoB-5" value="" style="endArrow=classic;html=1;rounded=0;exitX=0;exitY=0.5;exitDx=0;exitDy=0;exitPerimeter=0;entryX=0.5;entryY=0;entryDx=0;entryDy=0;" edge="1" parent="WIyWlLk6GJQsqaUBKTNV-1" source="DQyVlFHqTkPmnkN6bzoB-0" target="DQyVlFHqTkPmnkN6bzoB-3">
          <mxGeometry width="50" height="50" relative="1" as="geometry">
            <mxPoint x="310" y="940" as="sourcePoint" />
            <mxPoint x="350" y="1090" as="targetPoint" />
            <Array as="points">
              <mxPoint x="265" y="720" />
            </Array>
          </mxGeometry>
        </mxCell>
        <mxCell id="DQyVlFHqTkPmnkN6bzoB-6" value="Edit()" style="text;html=1;align=center;verticalAlign=middle;resizable=0;points=[];autosize=1;strokeColor=none;fillColor=none;" vertex="1" parent="WIyWlLk6GJQsqaUBKTNV-1">
          <mxGeometry x="275" y="738" width="50" height="30" as="geometry" />
        </mxCell>
        <mxCell id="DQyVlFHqTkPmnkN6bzoB-7" value="" style="endArrow=classic;html=1;rounded=0;entryX=0.524;entryY=0;entryDx=0;entryDy=0;entryPerimeter=0;exitX=1;exitY=0.5;exitDx=0;exitDy=0;exitPerimeter=0;" edge="1" parent="WIyWlLk6GJQsqaUBKTNV-1" source="DQyVlFHqTkPmnkN6bzoB-0" target="DQyVlFHqTkPmnkN6bzoB-4">
          <mxGeometry width="50" height="50" relative="1" as="geometry">
            <mxPoint x="310" y="940" as="sourcePoint" />
            <mxPoint x="360" y="890" as="targetPoint" />
            <Array as="points">
              <mxPoint x="548" y="720" />
            </Array>
          </mxGeometry>
        </mxCell>
        <mxCell id="DQyVlFHqTkPmnkN6bzoB-8" value="Delete()" style="text;html=1;align=center;verticalAlign=middle;resizable=0;points=[];autosize=1;strokeColor=none;fillColor=none;" vertex="1" parent="WIyWlLk6GJQsqaUBKTNV-1">
          <mxGeometry x="545" y="728" width="70" height="30" as="geometry" />
        </mxCell>
        <mxCell id="DQyVlFHqTkPmnkN6bzoB-9" value="" style="endArrow=classic;html=1;rounded=0;entryX=0.25;entryY=1;entryDx=0;entryDy=0;entryPerimeter=0;exitX=1;exitY=0;exitDx=0;exitDy=0;exitPerimeter=0;" edge="1" parent="WIyWlLk6GJQsqaUBKTNV-1" source="DQyVlFHqTkPmnkN6bzoB-3" target="DQyVlFHqTkPmnkN6bzoB-0">
          <mxGeometry width="50" height="50" relative="1" as="geometry">
            <mxPoint x="310" y="940" as="sourcePoint" />
            <mxPoint x="410" y="770" as="targetPoint" />
          </mxGeometry>
        </mxCell>
        <mxCell id="DQyVlFHqTkPmnkN6bzoB-10" value="Save()" style="text;html=1;align=center;verticalAlign=middle;resizable=0;points=[];autosize=1;strokeColor=none;fillColor=none;" vertex="1" parent="WIyWlLk6GJQsqaUBKTNV-1">
          <mxGeometry x="354" y="800" width="60" height="30" as="geometry" />
        </mxCell>
        <mxCell id="DQyVlFHqTkPmnkN6bzoB-11" value="" style="endArrow=classic;html=1;rounded=0;entryX=0.048;entryY=0.5;entryDx=0;entryDy=0;entryPerimeter=0;exitX=1;exitY=0.5;exitDx=0;exitDy=0;exitPerimeter=0;" edge="1" parent="WIyWlLk6GJQsqaUBKTNV-1" source="DQyVlFHqTkPmnkN6bzoB-3" target="DQyVlFHqTkPmnkN6bzoB-4">
          <mxGeometry width="50" height="50" relative="1" as="geometry">
            <mxPoint x="310" y="940" as="sourcePoint" />
            <mxPoint x="360" y="890" as="targetPoint" />
          </mxGeometry>
        </mxCell>
        <mxCell id="DQyVlFHqTkPmnkN6bzoB-12" value="Delete()" style="text;html=1;align=center;verticalAlign=middle;resizable=0;points=[];autosize=1;strokeColor=none;fillColor=none;" vertex="1" parent="WIyWlLk6GJQsqaUBKTNV-1">
          <mxGeometry x="365" y="848" width="70" height="30" as="geometry" />
        </mxCell>
        <mxCell id="DQyVlFHqTkPmnkN6bzoB-13" value="" style="endArrow=classic;html=1;rounded=0;entryX=1;entryY=0.25;entryDx=0;entryDy=0;" edge="1" parent="WIyWlLk6GJQsqaUBKTNV-1" target="DQyVlFHqTkPmnkN6bzoB-4">
          <mxGeometry width="50" height="50" relative="1" as="geometry">
            <mxPoint x="510" y="570" as="sourcePoint" />
            <mxPoint x="770" y="800" as="targetPoint" />
            <Array as="points">
              <mxPoint x="730" y="570" />
              <mxPoint x="730" y="875" />
            </Array>
          </mxGeometry>
        </mxCell>
        <mxCell id="ChVXrBqrEHMdO8lqSGDM-14" value="Draft" style="rounded=1;whiteSpace=wrap;html=1;" parent="WIyWlLk6GJQsqaUBKTNV-1" vertex="1">
          <mxGeometry x="395" y="540" width="110" height="60" as="geometry" />
        </mxCell>
        <mxCell id="DQyVlFHqTkPmnkN6bzoB-15" value="post deleted or user logged out" style="text;html=1;align=center;verticalAlign=middle;resizable=0;points=[];autosize=1;strokeColor=none;fillColor=none;" vertex="1" parent="WIyWlLk6GJQsqaUBKTNV-1">
          <mxGeometry x="565" y="650" width="190" height="30" as="geometry" />
        </mxCell>
        <mxCell id="DQyVlFHqTkPmnkN6bzoB-16" value="" style="endArrow=classic;html=1;rounded=0;exitX=0.583;exitY=1;exitDx=0;exitDy=0;exitPerimeter=0;entryX=0.5;entryY=0;entryDx=0;entryDy=0;entryPerimeter=0;" edge="1" parent="WIyWlLk6GJQsqaUBKTNV-1" source="DQyVlFHqTkPmnkN6bzoB-0" target="ChVXrBqrEHMdO8lqSGDM-23">
          <mxGeometry width="50" height="50" relative="1" as="geometry">
            <mxPoint x="310" y="990" as="sourcePoint" />
            <mxPoint x="350" y="1100" as="targetPoint" />
          </mxGeometry>
        </mxCell>
        <mxCell id="DQyVlFHqTkPmnkN6bzoB-17" value="" style="endArrow=classic;html=1;rounded=0;exitX=0.524;exitY=1;exitDx=0;exitDy=0;exitPerimeter=0;entryX=0.833;entryY=0.286;entryDx=0;entryDy=0;entryPerimeter=0;" edge="1" parent="WIyWlLk6GJQsqaUBKTNV-1" source="DQyVlFHqTkPmnkN6bzoB-4" target="ChVXrBqrEHMdO8lqSGDM-23">
          <mxGeometry width="50" height="50" relative="1" as="geometry">
            <mxPoint x="310" y="990" as="sourcePoint" />
            <mxPoint x="480" y="990" as="targetPoint" />
          </mxGeometry>
        </mxCell>
      </root>
    </mxGraphModel>
  </diagram>
</mxfile>
